<?xml version="1.0" encoding="utf-8"?>
<!-- Generator: Adobe Illustrator 27.0.0, SVG Export Plug-In . SVG Version: 6.00 Build 0)  -->
<svg version="1.1" id="图层_1" xmlns="http://www.w3.org/2000/svg" xmlns:xlink="http://www.w3.org/1999/xlink" x="0px" y="0px"
	 viewBox="0 0 56 56" style="enable-background:new 0 0 56 56;" xml:space="preserve">
<style type="text/css">
	.st0{fill-rule:evenodd;clip-rule:evenodd;fill:url(#SVGID_1_);}
</style>
<linearGradient id="SVGID_1_" gradientUnits="userSpaceOnUse" x1="9.8378" y1="85.0793" x2="50.4378" y2="-36.7207" gradientTransform="matrix(1 0 0 -1 0 58)">
	<stop  offset="0" style="stop-color:#6622CC"/>
	<stop  offset="1" style="stop-color:#0B0415"/>
</linearGradient>
<path class="st0" d="M50.4,5.8c0.9-0.2,1.9-0.1,2.7,0.3c0.9,0.4,1.6,1.2,2.1,2.1c0.5,1,0.8,2.1,0.8,3.2v30.3c0,3.8-1.2,7.4-3.4,10.1
	S47.4,56,44.3,56H11.7c-3.1,0-6.1-1.5-8.2-4.2S0,45.5,0,41.7V11.4c0-1.1,0.3-2.2,0.8-3.2C1.3,7.3,2,6.6,2.9,6.2
	c0.8-0.4,1.8-0.5,2.7-0.3C6.5,6,7.3,6.6,8,7.4l6,7.4L24.7,1.7C25.6,0.6,26.8,0,28,0c1.2,0,2.4,0.6,3.3,1.7L42,14.8l6-7.4
	C48.7,6.6,49.5,6,50.4,5.8L50.4,5.8z"/>
</svg>
