<?xml version="1.0" encoding="utf-8"?>
<!-- Generator: Adobe Illustrator 27.0.0, SVG Export Plug-In . SVG Version: 6.00 Build 0)  -->
<svg version="1.1" id="图层_1" xmlns="http://www.w3.org/2000/svg" xmlns:xlink="http://www.w3.org/1999/xlink" x="0px" y="0px"
	 viewBox="0 0 120 120" style="enable-background:new 0 0 120 120;" xml:space="preserve">
<style type="text/css">
	.st0{fill:none;}
	.st1{fill-rule:evenodd;clip-rule:evenodd;fill-opacity:5.000000e-02;}
	.st2{fill:#F4F4F4;}
	.st3{fill:#DCDCDC;}
	.st4{filter:url(#Adobe_OpacityMaskFilter);}
	.st5{fill-rule:evenodd;clip-rule:evenodd;fill:#FFFFFF;}
	.st6{mask:url(#mask-2_00000108288199307251534910000000430294337069999504_);fill:#DCDCDC;}
	.st7{fill:#CCCCCC;}
	.st8{fill:#A78B8F;}
	.st9{fill:#3F3D56;}
	.st10{fill:#2F2E41;}
	.st11{fill:#CECECE;}
	.st12{fill:#FFDCD5;}
	.st13{fill:#EAEAEA;}
	.st14{fill:#FFD0C7;}
	.st15{fill:#C6B5E2;}
	.st16{fill-rule:evenodd;clip-rule:evenodd;fill:#FFC9BE;}
	.st17{opacity:0.1;enable-background:new    ;}
	.st18{fill-rule:evenodd;clip-rule:evenodd;fill:#FA7268;}
</style>
<g id="调整">
	<g id="切图备份" transform="translate(-1479.000000, -569.000000)">
		<g id="编组-3备份" transform="translate(1358.000000, 508.000000)">
			<rect id="矩形备份-17" class="st0" width="362" height="242"/>
			<g id="编组-2" transform="translate(139.000000, 73.724458)">
				<path id="椭圆形" class="st1" d="M76.4,97.9c11.9,1.6,17.4-3.2,16.9-8.1c-0.5-4.9-6.7-1.7-17-4c-13-2.4-20.9,0-20.9,3.7
					C55.4,93.2,64.5,96.3,76.4,97.9z"/>
				<g id="undraw_filter_re_sa16">
					<g id="编组-8" transform="translate(0.000000, 7.182894)">
						<path id="路径" class="st2" d="M20.7,10.4c0,5.7-4.7,10.4-10.4,10.3C4.6,20.7,0,16.1,0,10.3C0,4.6,4.7,0,10.4,0
							c2.8,0,5.4,1.1,7.3,3S20.7,7.6,20.7,10.4z"/>
						<path id="路径_00000037687719531825577300000002429007652559296702_" class="st3" d="M5.6,6.8C6,5.4,7,4.1,8.3,3.6
							c1.3-0.5,3.3,0.2,4.3,1.3c1.8,1.9,2.3,8.4,1,10.4c-0.2,0-1.1,0-1.4,0L11.9,14v1.2c-0.4,0-0.8,0-1.2,0c-2.8,0-5.2-2.4-5.2-5.4
							C5.4,8.5,5.4,7.3,5.6,6.8z"/>
						<circle id="椭圆形_00000157272259420825716820000018043808959698914966_" class="st3" cx="10.4" cy="8.4" r="3"/>
						<path id="路径_00000137832652127150544980000007041323005009064624_" class="st3" d="M7.9,6.1l3.4-1.7l0,0
							c1.4,0.6,2.3,1.9,2.5,3.5l0.1,1l-1.4-0.4l-0.2-1.3L12,8.4l-0.7-0.2l0-2l-0.7,2L8.4,7.7L7.9,6.1z"/>
						<path id="路径_00000098204538539351206420000008868736143175478457_" class="st3" d="M18.3,17.2c-3.8,4.3-10.4,4.7-14.8,1
							l0.9-2.5c0.4-0.9,1.3-1.5,2.3-1.6l0.6,0L8.6,13c0,0,3.7-0.1,3.7-0.2l2.2,1.3l0,0l0.9,0.1c1,0.1,1.9,0.7,2.3,1.6L18.3,17.2z"/>
					</g>
					<g id="路径_00000041978058841619792570000014169819961898471090_" transform="translate(4.941176, 50.508916)">
						<g id="蒙版">
							<circle id="path-1_00000086655123567694881030000004112952745127463351_" class="st2" cx="9.4" cy="9.4" r="9.4"/>
						</g>
						<defs>
							<filter id="Adobe_OpacityMaskFilter" filterUnits="userSpaceOnUse" x="3.6" y="11.1" width="12.8" height="7.9">
								<feColorMatrix  type="matrix" values="1 0 0 0 0  0 1 0 0 0  0 0 1 0 0  0 0 0 1 0"/>
							</filter>
						</defs>
						
							<mask maskUnits="userSpaceOnUse" x="3.6" y="11.1" width="12.8" height="7.9" id="mask-2_00000108288199307251534910000000430294337069999504_">
							<g class="st4">
								<circle id="path-1_00000093176474536585465590000016473144688148059549_" class="st5" cx="9.4" cy="9.4" r="9.4"/>
							</g>
						</mask>
						<path class="st6" d="M16.4,15.9c-3.3,3.7-9,4.1-12.8,0.9l0.8-3.2c0.4-0.8,1.1-1.3,2-1.4l0.5,0l1.2-1c0,0,3.2-0.1,3.2-0.2
							l2,1.2l0.8,0c0.9,0.1,1.6,0.6,2,1.4L16.4,15.9z"/>
					</g>
					<path id="路径_00000018203502406673407410000002832354207595265687_" class="st3" d="M10.8,56.3c-0.1,0.7-0.3,1.3-0.6,2
						c-1.7,3.4,3.1,2.3,4.8,2.3c1.8,0,3.6,0.9,3.3-3.3c-0.1-1.8-1.5-3.3-3.3-3.3C13.4,54.1,11.2,54.8,10.8,56.3z"/>
					<circle id="椭圆形_00000048487030669039992120000002291206472786855297_" class="st3" cx="14.3" cy="58.1" r="2.7"/>
					<path id="路径_00000165950600070049179420000011177003680277062026_" class="st3" d="M12.7,55.4c1-0.6,2.2-0.6,3.2,0
						c1,0.6,1.6,1.6,1.6,2.8c-1.4,0.3-2.9,0.6-4.3,0.1l-0.4-0.9l-0.2,0.9c-0.5,0.2-0.9,0.3-1.4,0C11.2,57.1,11.7,56,12.7,55.4z"/>
					<circle id="椭圆形_00000052797200262602384770000009568584584584394402_" class="st2" cx="55.2" cy="45.4" r="15.4"/>
					<circle id="椭圆形_00000036955262092616068320000018044253014770983850_" class="st3" cx="55.9" cy="42" r="4.9"/>
					<path id="e457262b-f043-4272-b9dd-aba1e09de7d8-18" class="st3" d="M60.2,38.7c0,0,1.3-2.5-1.5-2.7c0,0-2.4-2.2-4.9-0.4
						c0,0-1.3,0-2.1,1.5c0,0-1.1-0.4-1.3,0.7c0,0-0.8,2.2,0,4.2c0.8,2,1,2.2,1,2.2s-0.5-2.5,2.6-2.7c3.1-0.2,5.9-2.2,6.2,0.3
						s0.5,1.3,0.5,1.3S63.2,39.7,60.2,38.7z"/>
					<path id="路径_00000023985421203558498080000008865062331936367807_" class="st3" d="M66.6,55.6c-5.5,6.2-15.1,6.9-21.4,1.5
						l1.3-3.6c0.6-1.3,1.9-2.2,3.4-2.3l0.8-0.1l2-1.7c0,0,5.4-0.2,5.3-0.3l3.3,1.9l0,0l1.3,0.1c1.5,0.1,2.7,1,3.4,2.3L66.6,55.6z"/>
					<circle id="椭圆形_00000167356348953512643590000003407494529562949009_" class="st2" cx="30" cy="36.2" r="9.4"/>
					<circle id="椭圆形_00000098209628302557341670000012751386247209811877_" class="st3" cx="30" cy="34.4" r="3.1"/>
					<path id="路径_00000182504230148965516070000003091103338083164077_" class="st3" d="M37.1,42.4c-3.5,3.8-9.4,4.3-13.4,0.9
						l0.8-2.2c0.4-0.8,1.2-1.4,2.1-1.4l0.5,0l1.2-1.1c0,0,3.4-0.1,3.3-0.2l2,1.2l0,0l0.8,0c0.9,0.1,1.7,0.6,2.1,1.4L37.1,42.4z"/>
					<path id="路径_00000122700601690620579730000003538404965074643868_" class="st3" d="M32.9,32.6c-0.2-0.9-0.8-1.7-1.6-2.2
						C30.7,30,30,29.8,29.3,30s-1.3,0.9-1.2,1.6c-0.3-0.1-0.5,0-0.7,0.2c-0.2,0.2-0.3,0.5-0.4,0.7c-0.2,0.8-0.2,1.7,0,2.6l0,0.1
						c0.3-0.1,0.6-0.4,0.8-0.7c0.2-0.3,0.3-0.7,0.4-1c0.2-0.3,0.5-0.6,0.8-0.6l0,0.5l0.9-0.5c-0.1,0.2-0.1,0.3-0.2,0.5
						c0.3-0.1,0.5-0.2,0.8-0.3c0,0.2-0.1,0.3-0.1,0.5c0.1-0.3,0.4-0.5,0.7-0.6c0.3-0.1,0.6-0.1,0.9,0.1c0.3,0.2,0.5,0.5,0.6,0.9
						c0.1,0.4,0.1,0.7,0.2,1.1C33.1,34.5,33.2,33.5,32.9,32.6z"/>
					<path id="路径_00000035515317507999412290000012139576674173076098_" class="st3" d="M50.1,43.8L50.1,43.8
						C50.1,43.8,50,43.8,50.1,43.8L50.1,43.8z"/>
					<path id="路径_00000163784586958778124100000004190496673666636190_" class="st3" d="M50,43.7c0,0.1,0,0.1,0,0.2
						c0,0,0,0-0.1,0L50,43.7z"/>
					<path id="路径_00000103253098860399482270000012784896415444917437_" class="st7" d="M70.6,45.4c0,8.3-6.5,15.1-14.7,15.4V30
						C64.1,30.3,70.6,37.1,70.6,45.4z"/>
					<path id="路径_00000015321207386834142700000001747352471858039435_" class="st3" d="M50,43.8L50,43.8L50,43.8
						C50.1,43.8,50,43.8,50,43.8L50,43.8z"/>
					<path id="路径_00000132799333593830541480000010785384535413518002_" class="st8" d="M59.7,43.9c-0.5,1.8-2,2.7-3.9,3.1V38
						c2.3,0.5,4,2.4,4,4.7C59.9,43.1,59.8,43.5,59.7,43.9z"/>
					<path id="路径_00000061445668360866313980000009339769072508130489_" class="st9" d="M66.6,55.6c-2.7,3.1-6.6,5-10.7,5.2
						V49.3c1.2-0.1,2.2-0.1,2.2-0.2l3.2,1.9l0,0l1.3,0.1c1.4,0.1,2.7,1,3.3,2.3L66.6,55.6L66.6,55.6z"/>
					<path id="路径_00000057129689227390195250000015053573668472279949_" class="st3" d="M50,43.7c0,0.1,0,0.1,0,0.2
						c0,0,0,0-0.1,0L50,43.7z"/>
					<path id="路径_00000072991801752011917560000004991433316390749871_" class="st10" d="M59.7,44.3c0-0.1,0-0.2,0-0.2v0
						c0-0.6-0.1-1.1-0.2-1.6c-0.2-0.6-0.5-1.2-1.1-1.5c-0.8-0.5-1.9-0.2-2.5,0.5v-6c0.5,0.1,1.1,0.4,1.5,0.7
						c1.3,0.9,2.3,2.2,2.7,3.7C60.5,41.2,60.4,42.8,59.7,44.3z"/>
					<path id="路径_00000057862368162379911360000000100097982190636979_" class="st11" d="M55.4,95.2V0.3c0-0.1,0.1-0.2,0.2-0.2
						s0.2,0.1,0.2,0.2v94.9c0,0.1-0.1,0.2-0.2,0.2C55.5,95.4,55.4,95.3,55.4,95.2z"/>
					<path id="路径_00000113353623163812125680000001862120938127439754_" class="st12" d="M75.1,40.7l-5.4-1.3l-7.1-6.1l1.1-1.3
						l6.6,3.9c0,0,4.3,1.1,5.7,2.4L75.1,40.7z"/>
					<circle id="椭圆形_00000141439879692110214570000010593960494039896458_" class="st12" cx="62.6" cy="32.2" r="1.3"/>
					<path id="路径_00000063620166293150831390000008017732381158569357_" class="st13" d="M75.2,37.3l-4.9-2l-2.4,2.8l1.8,1.4
						l4.8,1.2l0,0c0.3,1.2,2.5,2,4.3,2.5c1.2,0.3,2.5-0.3,2.9-1.5l0,0c0.3-0.8,0.1-1.8-0.6-2.4l-1.6-1.6L75.2,37.3z"/>
					<polygon id="路径_00000163760166443359548790000010583765347228903602_" class="st14" points="61.7,88 59.9,87.4 61.7,80.4 
						64.3,81.4 					"/>
					<polygon id="路径_00000097479923145749448370000009604652917331636914_" class="st14" points="79.1,90.7 77.3,90.7 
						76.4,83.6 79.1,83.6 					"/>
					<path id="路径备份" class="st10" d="M78.8,92.4c-3.1,0.2-4.9,0.1-5.4-0.3c-0.7-0.9,0.7-2.1,1.7-1.9c0.7,0.1,1.3,0,1.9-0.4
						l1.6,0.6l0.6-0.2v1.8C79.3,92.2,79.1,92.4,78.8,92.4z"/>
					<path id="路径备份_00000127016618747805763070000018015434678302862770_" class="st10" d="M60.9,89.8
						c-3.1-0.7-4.7-1.3-5.1-1.8c-0.5-1,1.2-1.8,2.2-1.4c0.6,0.3,1.3,0.4,2,0.2l1.4,1l0.6,0l-0.5,1.7C61.4,89.7,61.2,89.9,60.9,89.8z
						"/>
					<path id="路径_00000141440371684904623110000009137688985140906916_" class="st15" d="M81.7,60.2c0,0,0.2,2.6-0.3,5.1
						c-0.3,1.6-0.5,4.9-0.5,7.2c0,1.4-0.6,1.6-0.6,1.6l0.4,3.1l-1,11.3l-3.6-0.3l-1-22.9l-6.4,5.1l0.2,0.6c0.1,0.3-0.6,0.3-0.8,0.4
						l0,0l-0.6,1.5c0,0.5-0.3,1-0.7,1.1l0,0l-3.3,10l-2.6-1.6l0.9-9.1l1.2-4.2l4.9-6l0.1-1.7l0.5,0l0.2-0.7l0.5-1.2L81.7,60.2z"/>
					<polygon id="路径-3" class="st16" points="76.2,34.3 76.3,36 78.9,36 79.1,33.9 					"/>
					<polygon id="路径_00000122711266154820905730000005100315871810728586_" class="st17" points="71.2,40 72.9,40.3 76.4,37.7 
						74.5,37 72.4,38 					"/>
					<path id="路径_00000098911093734934364710000000240732215020324234_" class="st13" d="M82.1,60.8L82.1,60.8
						c1.1-1.5-0.5-5-0.7-5.5l0,0c0.6-0.2,0.9-0.8,0.9-1.4l-0.1-0.9L82,52.3l0.8-0.8l0,0l0.4-3.8l0.6-2.5c0.5-1.9-0.1-4-1.6-5.4
						l-1.5-1.4L79,35.8h-2.9l-1,1.9c-2,0.5-3.3,2.2-3.2,4.3l0.2,4.9l-0.9,6.1l0,1.1l-0.5,0.5c-0.3,0.4-0.5,0.9-0.4,1.4l0.1,0.3l0,0
						c-0.5,0.2-0.8,0.6-0.9,1.1l-0.2,0.7c-0.1,0.2-1,1.4-1,1.7c0,0,0,0.1,0.1,0.1c0.6,0.4,4,1.3,5.5,0.7
						C75.6,59.8,82,60.8,82.1,60.8L82.1,60.8z"/>
					<circle id="椭圆形_00000062908618528463657940000010723626287699359152_" class="st12" cx="77.1" cy="31.1" r="3.8"/>
					<path id="路径_00000121259133363171859610000007108209299090208182_" class="st12" d="M76,47.6l-2.6,4.8l-7.5,5.3L64.3,56
						l5.8-5.1c0,0,2.1-3.8,3.7-4.9L76,47.6z"/>
					<circle id="椭圆形_00000050653164950483471620000018407883005039477888_" class="st12" cx="64.8" cy="57.2" r="1.3"/>
					<polygon id="路径_00000153683910449716846490000009470413860609828520_" class="st17" points="73.6,53.2 76.4,49.6 
						77.4,45.9 77.6,43.3 					"/>
					<path id="路径_00000139990905324856755210000000044489487342218905_" class="st13" d="M75.7,48.5l1.6-3.9v-2.1
						c-0.2-0.9-1.5-1.6-2.4-1.7c-1.2-0.2-2.4,0.5-2.7,1.7c-0.4,1.8-0.8,4.1,0.1,5l0,0l-2.7,3.5l3.9,2.2L75.7,48.5z"/>
					<path id="路径-2_00000178906584833087198200000006073819875345439670_" class="st18" d="M79.7,26.6"/>
					<path id="路径_00000060001812895891406820000000435011105509260161_" class="st10" d="M81.2,28.2c-0.3-0.4-0.8-0.7-1.1-1.1
						c0-0.1,0.6-0.6,0.5-0.7c-0.1-0.1-0.8,0.3-0.8,0.3c0-0.1,0.2-0.5,0.2-0.5c-0.1,0-0.4,0.3-0.4,0.3c-0.4-0.3-0.9-0.5-1.5-0.5
						c-1.2,0-1.8-0.1-3.2,0.5s-2.4,2.8-2.3,3c0.1,0.4,0.3,0,0.5,0c0.1,0,0.1,0.5,0.2,0.5c0.4,0.1,0.7-0.5,1.1,0.1
						c0.4,0.6,0.3,0.5,0.5,0.7c0.3,0.2,0.7,0.1,1.1,0.2c0.7,0.1,1,0.8,1.2,0.6c0.1-0.2,0.5-0.6,1-0.2c1,0.7-0.3,3.6-0.3,3.6
						c0.3,0.1,0.5,0.6,0.9,0.2c0.3-0.3,0.7-0.8,1.3-1.5c1-1,1.5-1.8,1.7-2.6C81.8,30,81.8,29,81.2,28.2z"/>
				</g>
			</g>
		</g>
	</g>
</g>
</svg>
